<?xml version="1.0" encoding="UTF-8"?>
<svg xmlns="http://www.w3.org/2000/svg" width="16" height="16" viewBox="0 0 16 16">
<!--
  Steganon — there is cover, but not ours: the level stays low.
-->
  <g fill="currentColor">
    <path d="M8 0.75 1.9 3.1v4.55c0 3.4 2.5 6.45 6.1 7.6 3.6-1.15 6.1-4.2 6.1-7.6V3.1Zm0 1.6 4.6 1.78v3.52c0 2.63-1.86 5.03-4.6 6.05-2.74-1.02-4.6-3.42-4.6-6.05V4.13Z"/>
    <path d="M4.15 10.6c.55 0 .55.55 1.1.55s.55-.55 1.1-.55.55.55 1.1.55.55-.55 1.1-.55.55.55 1.1.55.55-.55 1.1-.55c.16 0 .26.05.35.11-.66 1.35-1.87 2.47-3.48 3.19l-.02.01-.02-.01c-1.63-.73-2.85-1.87-3.5-3.24.03 0 .05-.06.07-.06Z" opacity=".95"/>
  </g>
</svg>
